<svg width="300" height="300" viewBox="0 0 300 300" fill="none" xmlns="http://www.w3.org/2000/svg">
<rect width="300" height="300" rx="150" fill="white"/>
<path d="M74.3828 53.875L82 77.6172L89.5938 53.875H100.422V88H92.1719V80.0312L92.9688 63.7188L84.7188 88H79.2812L71.0078 63.6953L71.8047 80.0312V88H63.5781V53.875H74.3828ZM134.57 71.6406C134.57 74.9688 133.953 77.9141 132.719 80.4766C131.484 83.0391 129.727 85.0156 127.445 86.4062C125.18 87.7812 122.594 88.4688 119.688 88.4688C116.781 88.4688 114.203 87.8047 111.953 86.4766C109.703 85.1328 107.945 83.2188 106.68 80.7344C105.43 78.25 104.773 75.3984 104.711 72.1797V70.2578C104.711 66.9141 105.32 63.9688 106.539 61.4219C107.773 58.8594 109.531 56.8828 111.812 55.4922C114.109 54.1016 116.719 53.4062 119.641 53.4062C122.531 53.4062 125.109 54.0938 127.375 55.4688C129.641 56.8438 131.398 58.8047 132.648 61.3516C133.914 63.8828 134.555 66.7891 134.57 70.0703V71.6406ZM126.203 70.2109C126.203 66.8203 125.633 64.25 124.492 62.5C123.367 60.7344 121.75 59.8516 119.641 59.8516C115.516 59.8516 113.336 62.9453 113.102 69.1328L113.078 71.6406C113.078 74.9844 113.633 77.5547 114.742 79.3516C115.852 81.1484 117.5 82.0469 119.688 82.0469C121.766 82.0469 123.367 81.1641 124.492 79.3984C125.617 77.6328 126.188 75.0938 126.203 71.7812V70.2109ZM151.539 78.7188L158.336 53.875H167.523L156.039 88H147.039L135.648 53.875H144.766L151.539 78.7188ZM178.797 88H170.594V53.875H178.797V88ZM205.68 73.5391H192.742V81.6719H208.023V88H184.516V53.875H208.07V60.2266H192.742V67.4219H205.68V73.5391ZM228.977 78.9297C228.977 77.7266 228.547 76.7891 227.688 76.1172C226.844 75.4453 225.352 74.75 223.211 74.0312C221.07 73.3125 219.32 72.6172 217.961 71.9453C213.539 69.7734 211.328 66.7891 211.328 62.9922C211.328 61.1016 211.875 59.4375 212.969 58C214.078 56.5469 215.641 55.4219 217.656 54.625C219.672 53.8125 221.938 53.4062 224.453 53.4062C226.906 53.4062 229.102 53.8438 231.039 54.7188C232.992 55.5938 234.508 56.8438 235.586 58.4688C236.664 60.0781 237.203 61.9219 237.203 64H229C229 62.6094 228.57 61.5312 227.711 60.7656C226.867 60 225.719 59.6172 224.266 59.6172C222.797 59.6172 221.633 59.9453 220.773 60.6016C219.93 61.2422 219.508 62.0625 219.508 63.0625C219.508 63.9375 219.977 64.7344 220.914 65.4531C221.852 66.1562 223.5 66.8906 225.859 67.6562C228.219 68.4062 230.156 69.2188 231.672 70.0938C235.359 72.2188 237.203 75.1484 237.203 78.8828C237.203 81.8672 236.078 84.2109 233.828 85.9141C231.578 87.6172 228.492 88.4688 224.57 88.4688C221.805 88.4688 219.297 87.9766 217.047 86.9922C214.812 85.9922 213.125 84.6328 211.984 82.9141C210.859 81.1797 210.297 79.1875 210.297 76.9375H218.547C218.547 78.7656 219.016 80.1172 219.953 80.9922C220.906 81.8516 222.445 82.2812 224.57 82.2812C225.93 82.2812 227 81.9922 227.781 81.4141C228.578 80.8203 228.977 79.9922 228.977 78.9297Z" fill="black"/>
<rect x="61" y="102" width="178" height="136" fill="black"/>
<path d="M61 140H239" stroke="white"/>
<path d="M61 121H239" stroke="white" stroke-width="3"/>
<path d="M218.5 140L237.5 121H215L196 140H218.5Z" fill="white" stroke="white"/>
<path d="M177.5 140L196.5 121H174L155 140H177.5Z" fill="white" stroke="white"/>
<path d="M136.5 140L155.5 121H133L114 140H136.5Z" fill="white" stroke="white"/>
<path d="M95.5 140L114.5 121H92L73 140H95.5Z" fill="white" stroke="white"/>
<path d="M92 121L73 102H95.5L114.5 121H92Z" fill="white" stroke="white"/>
<path d="M133 121L114 102H136.5L155.5 121H133Z" fill="white" stroke="white"/>
<path d="M174 121L155 102H177.5L196.5 121H174Z" fill="white" stroke="white"/>
<path d="M215 121L196 102H218.5L237.5 121H215Z" fill="white" stroke="white"/>
<path d="M61 102H239" stroke="black"/>
<path d="M127.078 203H118.898L106.805 181.766V203H98.5781V168.875H106.805L118.875 190.109V168.875H127.078V203ZM161.18 186.641C161.18 189.969 160.562 192.914 159.328 195.477C158.094 198.039 156.336 200.016 154.055 201.406C151.789 202.781 149.203 203.469 146.297 203.469C143.391 203.469 140.812 202.805 138.562 201.477C136.312 200.133 134.555 198.219 133.289 195.734C132.039 193.25 131.383 190.398 131.32 187.18V185.258C131.32 181.914 131.93 178.969 133.148 176.422C134.383 173.859 136.141 171.883 138.422 170.492C140.719 169.102 143.328 168.406 146.25 168.406C149.141 168.406 151.719 169.094 153.984 170.469C156.25 171.844 158.008 173.805 159.258 176.352C160.523 178.883 161.164 181.789 161.18 185.07V186.641ZM152.812 185.211C152.812 181.82 152.242 179.25 151.102 177.5C149.977 175.734 148.359 174.852 146.25 174.852C142.125 174.852 139.945 177.945 139.711 184.133L139.688 186.641C139.688 189.984 140.242 192.555 141.352 194.352C142.461 196.148 144.109 197.047 146.297 197.047C148.375 197.047 149.977 196.164 151.102 194.398C152.227 192.633 152.797 190.094 152.812 186.781V185.211ZM191.859 190.273L195.773 168.875H203.93L196.688 203H188.156L183.586 183.547L179.109 203H170.602L163.336 168.875H171.516L175.43 190.273L180.117 168.875H187.102L191.859 190.273Z" fill="white"/>
</svg>
